# xmcd
#
# Track frame offsets: 
#        150
#        14162
#        29737
#        41045
#        69665
#        80785
#        104067
#        118712
#        127090
#        145740
#        161675
#        183130
#
# Disc length: 2678 seconds
#
# Revision: 0
# Processed by: cddbd v1.5.2PL0 Copyright (c) Steve Scherf et al.
# Submitted via: ExactAudioCopy v0.99pb5
#
DISCID=b70a740c
DTITLE=CLARENCE GATEMOUTH BROWN - BLACKJACK
DYEAR=1977
DGENRE=Blues
TTITLE0=PRESSURE COOKER
TTITLE1=TIPPIN' IN
TTITLE2=HERE AM I
TTITLE3=GATE'S TUNE
TTITLE4=WHEN MY BLUE MOON TURNS TO GOLD AGAIN
TTITLE5=STREET CORNER
TTITLE6=CHICKENSHIFT
TTITLE7=TAKE ME BACK TO TULSA
TTITLE8=DARK END OF THE HALLWAY
TTITLE9=UP JUMP THE DEVIL
TTITLE10=BLACKJACK
TTITLE11=HONEY BOY
EXTD=
EXTT0=
EXTT1=
EXTT2=
EXTT3=
EXTT4=
EXTT5=
EXTT6=
EXTT7=
EXTT8=
EXTT9=
EXTT10=
EXTT11=
PLAYORDER=
